<svg width="91" height="48" viewBox="0 0 91 48" fill="none" xmlns="http://www.w3.org/2000/svg">
<path d="M26.4727 0.1875L25.9102 10.7812L21.8164 11.1562L19.6289 5.48438L19.2852 11.2656H15.7695L16.0508 0.1875L19.957 0L22.6602 5.625L22.7852 0.3125L26.4727 0.1875Z" fill="#F9F9F9"/>
<path d="M36.8242 10.7188L32.9492 11.2188L32.4805 9.45312H30.6992L30.3086 11.2188L26.3242 10.8281L29.4336 0.421875L33.7773 0.203125L36.8242 10.7188ZM32.1992 7.0625L31.6055 4.34375L31.0273 7.0625H32.1992Z" fill="#F9F9F9"/>
<path d="M41.207 0.390625L40.3477 11.0312L37.0508 11.2031V0.609375L41.207 0.390625Z" fill="#F9F9F9"/>
<path d="M49.043 4.95312C49.043 5.26042 49.043 5.5651 49.043 5.86719C49.043 6.16927 49.0273 6.47396 48.9961 6.78125C48.9388 7.43229 48.7982 8.04948 48.5742 8.63281C48.3503 9.21094 48.0456 9.71875 47.6602 10.1562C47.2799 10.5938 46.8164 10.9401 46.2695 11.1953C45.7227 11.4505 45.0951 11.5781 44.3867 11.5781C44.1107 11.5781 43.8216 11.5547 43.5195 11.5078C43.2227 11.4609 42.9258 11.3906 42.6289 11.2969C42.3372 11.2031 42.056 11.0885 41.7852 10.9531C41.5195 10.8125 41.2826 10.651 41.0742 10.4688L41.5586 7.23438C41.8659 7.53125 42.207 7.77344 42.582 7.96094C42.957 8.14323 43.3659 8.23438 43.8086 8.23438C44.0951 8.23438 44.3372 8.19271 44.5352 8.10938C44.7331 8.02604 44.8971 7.91146 45.0273 7.76562C45.1576 7.61979 45.2591 7.45052 45.332 7.25781C45.4102 7.0599 45.4648 6.85156 45.4961 6.63281C45.5326 6.40885 45.5534 6.17969 45.5586 5.94531C45.569 5.71094 45.5742 5.47917 45.5742 5.25C45.5742 4.42188 45.5326 3.59896 45.4492 2.78125C45.3659 1.95833 45.293 1.13542 45.2305 0.3125L48.8086 0.078125C48.9648 1.70312 49.043 3.32812 49.043 4.95312Z" fill="#F9F9F9"/>
<path d="M59.2617 10.7188L55.3867 11.2188L54.918 9.45312H53.1367L52.7461 11.2188L48.7617 10.8281L51.8711 0.421875L56.2148 0.203125L59.2617 10.7188ZM54.6367 7.0625L54.043 4.34375L53.4648 7.0625H54.6367Z" fill="#F9F9F9"/>
<path d="M25.7539 18.2031L21.9883 23.4062L25.1602 28.9375L21.5352 29.5781L19.1602 26.2031L19.0352 29.7344L15.7852 29.8594L16.0352 17.8906L19.6758 18.0938L19.3945 21.625L21.8164 17.8906L25.7539 18.2031Z" fill="#F9F9F9"/>
<path d="M29.8945 18.3906L29.0352 29.0312L25.7383 29.2031V18.6094L29.8945 18.3906Z" fill="#F9F9F9"/>
<path d="M38.6992 18.2188L38.6211 21.5312L36.293 21.625L35.6992 29.0312L32.4023 29.2031L32.418 21.7969L30.0898 21.9219L30.1836 18.2344L38.6992 18.2188Z" fill="#F9F9F9"/>
<path d="M46.6367 18.4062L46.1992 21.7031C46.0482 21.6615 45.8971 21.6328 45.7461 21.6172C45.5951 21.6016 45.444 21.5938 45.293 21.5938C44.9076 21.5938 44.5404 21.6458 44.1914 21.75C43.8424 21.849 43.5326 22.0026 43.2617 22.2109C42.9961 22.4193 42.7826 22.6797 42.6211 22.9922C42.4648 23.3047 42.3867 23.6719 42.3867 24.0938C42.3867 24.3646 42.4284 24.599 42.5117 24.7969C42.6003 24.9948 42.7227 25.1589 42.8789 25.2891C43.0352 25.4193 43.2201 25.5156 43.4336 25.5781C43.6471 25.6406 43.8815 25.6719 44.1367 25.6719C44.3294 25.6719 44.5299 25.651 44.7383 25.6094C44.9466 25.5677 45.1523 25.513 45.3555 25.4453C45.5586 25.3776 45.7565 25.2995 45.9492 25.2109C46.1419 25.1224 46.319 25.0312 46.4805 24.9375L46.168 28.6094C45.9648 28.7135 45.7435 28.8073 45.5039 28.8906C45.2695 28.9688 45.0273 29.0391 44.7773 29.1016C44.5273 29.1589 44.2773 29.2031 44.0273 29.2344C43.7773 29.2656 43.5378 29.2812 43.3086 29.2812C42.6471 29.2812 42.0299 29.1589 41.457 28.9141C40.8841 28.6693 40.3867 28.3333 39.9648 27.9062C39.543 27.4792 39.2096 26.9766 38.9648 26.3984C38.7253 25.8151 38.6055 25.1875 38.6055 24.5156C38.6055 23.625 38.7331 22.7865 38.9883 22C39.2435 21.2083 39.6185 20.5156 40.1133 19.9219C40.6081 19.3281 41.2201 18.8594 41.9492 18.5156C42.6836 18.1719 43.5273 18 44.4805 18C44.8398 18 45.207 18.0286 45.582 18.0859C45.9622 18.1432 46.3138 18.25 46.6367 18.4062Z" fill="#F9F9F9"/>
<path d="M56.4023 29.3906L52.4961 29.5781L52.4648 25.9688H50.668L50.5586 29.3906H47.0586L47.3555 18.4062L51.0742 18.5781L50.8398 24.1875H52.5742L52.5898 18.1562L56.1523 18.25L56.4023 29.3906Z" fill="#F9F9F9"/>
<path d="M64.543 18.125C64.5117 18.6146 64.4831 19.099 64.457 19.5781C64.431 20.0573 64.3971 20.5417 64.3555 21.0312L61.043 21.2031L60.9648 22.1875H63.293L63.1211 24.6094L60.7773 24.6875L60.6992 25.8281H64.0117C63.9805 26.401 63.9466 26.9714 63.9102 27.5391C63.8789 28.1016 63.8503 28.6667 63.8242 29.2344L57.0898 29.3906L57.3398 18.125H64.543Z" fill="#F9F9F9"/>
<path d="M75.4414 18.1875L74.8789 28.7812L70.7852 29.1562L68.5977 23.4844L68.2539 29.2656H64.7383L65.0195 18.1875L68.9258 18L71.6289 23.625L71.7539 18.3125L75.4414 18.1875Z" fill="#F9F9F9"/>
<path d="M23.5898 36.4062L23.1523 39.7031C23.0013 39.6615 22.8503 39.6328 22.6992 39.6172C22.5482 39.6016 22.3971 39.5938 22.2461 39.5938C21.8607 39.5938 21.4935 39.6458 21.1445 39.75C20.7956 39.849 20.4857 40.0026 20.2148 40.2109C19.9492 40.4193 19.7357 40.6797 19.5742 40.9922C19.418 41.3047 19.3398 41.6719 19.3398 42.0938C19.3398 42.3646 19.3815 42.599 19.4648 42.7969C19.5534 42.9948 19.6758 43.1589 19.832 43.2891C19.9883 43.4193 20.1732 43.5156 20.3867 43.5781C20.6003 43.6406 20.8346 43.6719 21.0898 43.6719C21.2826 43.6719 21.4831 43.651 21.6914 43.6094C21.8997 43.5677 22.1055 43.513 22.3086 43.4453C22.5117 43.3776 22.7096 43.2995 22.9023 43.2109C23.0951 43.1224 23.2721 43.0312 23.4336 42.9375L23.1211 46.6094C22.918 46.7135 22.6966 46.8073 22.457 46.8906C22.2227 46.9688 21.9805 47.0391 21.7305 47.1016C21.4805 47.1589 21.2305 47.2031 20.9805 47.2344C20.7305 47.2656 20.4909 47.2812 20.2617 47.2812C19.6003 47.2812 18.9831 47.1589 18.4102 46.9141C17.8372 46.6693 17.3398 46.3333 16.918 45.9062C16.4961 45.4792 16.1628 44.9766 15.918 44.3984C15.6784 43.8151 15.5586 43.1875 15.5586 42.5156C15.5586 41.625 15.6862 40.7865 15.9414 40C16.1966 39.2083 16.5716 38.5156 17.0664 37.9219C17.5612 37.3281 18.1732 36.8594 18.9023 36.5156C19.6367 36.1719 20.4805 36 21.4336 36C21.793 36 22.1602 36.0286 22.5352 36.0859C22.9154 36.1432 23.2669 36.25 23.5898 36.4062Z" fill="#FFB54D"/>
<path d="M33.3555 47.3906L29.4492 47.5781L29.418 43.9688H27.6211L27.5117 47.3906H24.0117L24.3086 36.4062L28.0273 36.5781L27.793 42.1875H29.5273L29.543 36.1562L33.1055 36.25L33.3555 47.3906Z" fill="#FFB54D"/>
<path d="M43.9492 46.7188L40.0742 47.2188L39.6055 45.4531H37.8242L37.4336 47.2188L33.4492 46.8281L36.5586 36.4219L40.9023 36.2031L43.9492 46.7188ZM39.3242 43.0625L38.7305 40.3438L38.1523 43.0625H39.3242Z" fill="#FFB54D"/>
<path d="M53.4883 41.875C53.4883 42.349 53.4336 42.8073 53.3242 43.25C53.2148 43.6875 53.056 44.099 52.8477 44.4844C52.6445 44.8698 52.3945 45.224 52.0977 45.5469C51.806 45.8646 51.4753 46.138 51.1055 46.3672C50.7409 46.5964 50.3424 46.776 49.9102 46.9062C49.4779 47.0312 49.0195 47.0938 48.5352 47.0938C48.0664 47.0938 47.6185 47.0339 47.1914 46.9141C46.7695 46.7943 46.3737 46.6276 46.0039 46.4141C45.6341 46.1953 45.2982 45.9349 44.9961 45.6328C44.6992 45.3255 44.444 44.987 44.2305 44.6172C44.0221 44.2422 43.8581 43.8411 43.7383 43.4141C43.6237 42.987 43.5664 42.5417 43.5664 42.0781C43.5664 41.625 43.6211 41.1823 43.7305 40.75C43.8398 40.3125 43.9961 39.901 44.1992 39.5156C44.4076 39.1302 44.6576 38.776 44.9492 38.4531C45.2409 38.1302 45.5664 37.8516 45.9258 37.6172C46.2904 37.3828 46.6836 37.2005 47.1055 37.0703C47.5273 36.9401 47.9727 36.875 48.4414 36.875C49.1966 36.875 49.8841 36.9922 50.5039 37.2266C51.1289 37.4609 51.6602 37.7969 52.0977 38.2344C52.5404 38.6667 52.8815 39.1927 53.1211 39.8125C53.3659 40.4271 53.4883 41.1146 53.4883 41.875ZM50.0195 42.0781C50.0195 41.8542 49.9857 41.638 49.918 41.4297C49.8555 41.2161 49.7617 41.0286 49.6367 40.8672C49.5117 40.7005 49.3555 40.5677 49.168 40.4688C48.9857 40.3646 48.7747 40.3125 48.5352 40.3125C48.2904 40.3125 48.0716 40.3568 47.8789 40.4453C47.6862 40.5339 47.5195 40.6562 47.3789 40.8125C47.2435 40.9635 47.1393 41.1432 47.0664 41.3516C46.9935 41.5547 46.957 41.7708 46.957 42C46.957 42.2188 46.9883 42.4375 47.0508 42.6562C47.1133 42.875 47.207 43.0729 47.332 43.25C47.457 43.4271 47.6107 43.5703 47.793 43.6797C47.9805 43.7891 48.1966 43.8438 48.4414 43.8438C48.6862 43.8438 48.9049 43.7969 49.0977 43.7031C49.2956 43.6042 49.4622 43.474 49.5977 43.3125C49.7331 43.1458 49.8372 42.9557 49.9102 42.7422C49.9831 42.5286 50.0195 42.3073 50.0195 42.0781Z" fill="#FFB54D"/>
<path d="M61.957 43.2344C61.957 43.9479 61.832 44.5729 61.582 45.1094C61.3372 45.6406 60.9987 46.0833 60.5664 46.4375C60.1393 46.7917 59.6367 47.0573 59.0586 47.2344C58.4857 47.4115 57.8685 47.5 57.207 47.5C56.9518 47.5 56.6706 47.4661 56.3633 47.3984C56.0612 47.3307 55.7539 47.2474 55.4414 47.1484C55.1289 47.0443 54.8268 46.9349 54.5352 46.8203C54.2487 46.7005 53.9935 46.5885 53.7695 46.4844L54.1133 43.2656C54.556 43.5312 55.0456 43.7344 55.582 43.875C56.1237 44.0104 56.6549 44.0781 57.1758 44.0781C57.2747 44.0781 57.3945 44.0755 57.5352 44.0703C57.6758 44.0599 57.8086 44.0365 57.9336 44C58.0638 43.9583 58.1732 43.8984 58.2617 43.8203C58.3503 43.7422 58.3945 43.6302 58.3945 43.4844C58.3945 43.3854 58.3633 43.3021 58.3008 43.2344C58.2383 43.1615 58.1576 43.1042 58.0586 43.0625C57.9596 43.0156 57.8477 42.9818 57.7227 42.9609C57.5977 42.9349 57.4753 42.9167 57.3555 42.9062C57.2357 42.8958 57.1237 42.8906 57.0195 42.8906C56.9154 42.8906 56.832 42.8906 56.7695 42.8906C56.3216 42.8906 55.9128 42.8125 55.543 42.6562C55.1784 42.5 54.8633 42.2839 54.5977 42.0078C54.3372 41.7266 54.1341 41.3958 53.9883 41.0156C53.8424 40.6302 53.7695 40.2135 53.7695 39.7656C53.7695 39.151 53.8919 38.6016 54.1367 38.1172C54.3867 37.6276 54.7174 37.2135 55.1289 36.875C55.5456 36.5312 56.0221 36.2682 56.5586 36.0859C57.0951 35.9036 57.6497 35.8125 58.2227 35.8125C58.4779 35.8125 58.7409 35.8229 59.0117 35.8438C59.2826 35.8594 59.5508 35.8906 59.8164 35.9375C60.0872 35.9844 60.3503 36.0443 60.6055 36.1172C60.8607 36.1901 61.1029 36.2812 61.332 36.3906L61.0352 39.5625C60.681 39.4427 60.3086 39.3438 59.918 39.2656C59.5326 39.1823 59.1549 39.1406 58.7852 39.1406C58.7174 39.1406 58.6289 39.1432 58.5195 39.1484C58.4154 39.1484 58.3034 39.1562 58.1836 39.1719C58.069 39.1823 57.9518 39.2005 57.832 39.2266C57.7122 39.2526 57.6055 39.2891 57.5117 39.3359C57.418 39.3776 57.3424 39.4349 57.2852 39.5078C57.2279 39.5807 57.2018 39.6667 57.207 39.7656C57.2122 39.8802 57.2539 39.974 57.332 40.0469C57.4154 40.1146 57.5195 40.1693 57.6445 40.2109C57.7747 40.2474 57.9154 40.2734 58.0664 40.2891C58.2227 40.3047 58.3763 40.3151 58.5273 40.3203C58.6784 40.3203 58.819 40.3203 58.9492 40.3203C59.0794 40.3151 59.1862 40.3177 59.2695 40.3281C59.6862 40.3542 60.0612 40.4427 60.3945 40.5938C60.7279 40.7448 61.0091 40.9453 61.2383 41.1953C61.4727 41.4453 61.6497 41.7448 61.7695 42.0938C61.8945 42.4375 61.957 42.8177 61.957 43.2344Z" fill="#FFB54D"/>
</svg>
