<svg width="20" height="20" viewBox="0 0 20 20" fill="none" xmlns="http://www.w3.org/2000/svg">
<path d="M7.4974 18.3333H12.4974C16.6641 18.3333 18.3307 16.6667 18.3307 12.5V7.5C18.3307 3.33334 16.6641 1.66667 12.4974 1.66667H7.4974C3.33073 1.66667 1.66406 3.33334 1.66406 7.5V12.5C1.66406 16.6667 3.33073 18.3333 7.4974 18.3333Z" stroke="#F9F9F9" stroke-width="1.5" stroke-linecap="round" stroke-linejoin="round"/>
<path d="M10.0026 12.9167C11.6134 12.9167 12.9193 11.6108 12.9193 9.99999C12.9193 8.38916 11.6134 7.08333 10.0026 7.08333C8.39177 7.08333 7.08594 8.38916 7.08594 9.99999C7.08594 11.6108 8.39177 12.9167 10.0026 12.9167Z" stroke="#F9F9F9" stroke-width="1.5" stroke-linecap="round" stroke-linejoin="round"/>
<path d="M14.6942 5.83334H14.7038" stroke="#292D32" stroke-width="2" stroke-linecap="round" stroke-linejoin="round"/>
</svg>
